<svg width="251" height="98" viewBox="0 0 251 98" fill="none" xmlns="http://www.w3.org/2000/svg">
<path d="M14.8125 58C14.8125 59.0833 14.7708 60.7917 14.6875 63.125C14.6875 65.4583 14.6458 68.0833 14.5625 71C14.4792 73.9167 14.3542 76.9583 14.1875 80.125C14.1042 83.2083 13.9375 86.0417 13.6875 88.625C13.4375 91.125 13.1458 93.2083 12.8125 94.875C12.5625 96.5417 12.2292 97.375 11.8125 97.375C10.5625 97.375 9.35417 96.5 8.1875 94.75C7.10417 92.9167 5.97917 90.9583 4.8125 88.875C4.5625 88.375 4.27083 86.9167 3.9375 84.5C3.6875 82 3.39583 78.875 3.0625 75.125C2.8125 71.375 2.5625 67.2083 2.3125 62.625C2.0625 58.0417 1.8125 53.375 1.5625 48.625C1.3125 43.875 1.10417 39.2083 0.9375 34.625C0.854167 30.0417 0.770833 25.9167 0.6875 22.25C0.604167 18.5833 0.604167 15.5417 0.6875 13.125C0.770833 10.625 0.9375 9.16667 1.1875 8.75C1.52083 8.16667 2.6875 7.75 4.6875 7.5C6.6875 7.16667 9.10417 7 11.9375 7C14.8542 7 17.9792 7.08333 21.3125 7.25C24.6458 7.41667 27.7292 7.66667 30.5625 8C33.4792 8.25 35.8958 8.54167 37.8125 8.875C39.8125 9.20833 40.9375 9.5 41.1875 9.75C41.5208 10.0833 41.5625 11 41.3125 12.5C41.1458 13.9167 40.8125 15.5 40.3125 17.25C39.8958 18.9167 39.3542 20.5 38.6875 22C38.1042 23.5 37.6042 24.4583 37.1875 24.875C36.7708 25.2917 34.8125 25.25 31.3125 24.75C27.8958 24.25 22.3958 23.6667 14.8125 23V43.875C20.6458 44.375 25.1875 44.8333 28.4375 45.25C31.7708 45.6667 33.5208 45.9583 33.6875 46.125C34.0208 46.4583 34.1458 47.125 34.0625 48.125C33.9792 49.125 33.7708 50.2083 33.4375 51.375C33.1042 52.4583 32.6875 53.5 32.1875 54.5C31.6875 55.4167 31.1875 56.0417 30.6875 56.375C30.4375 56.5417 28.9375 56.7917 26.1875 57.125C23.5208 57.4583 19.7292 57.75 14.8125 58ZM53.9375 43.25C54.1042 43.6667 54.1875 45 54.1875 47.25C54.2708 49.4167 54.2708 52.0833 54.1875 55.25C54.1875 58.3333 54.1042 61.6667 53.9375 65.25C53.7708 68.75 53.5625 72.0833 53.3125 75.25C53.1458 78.3333 52.9375 81 52.6875 83.25C52.4375 85.4167 52.1875 86.7083 51.9375 87.125C51.1875 88.2917 50.0625 89.0417 48.5625 89.375C47.0625 89.625 45.9792 89.6667 45.3125 89.5C44.9792 89.5 44.6042 88.5417 44.1875 86.625C43.8542 84.7083 43.5208 82.2917 43.1875 79.375C42.8542 76.4583 42.5625 73.2917 42.3125 69.875C42.0625 66.4583 41.8542 63.2083 41.6875 60.125C41.5208 56.9583 41.4375 54.2083 41.4375 51.875C41.4375 49.5417 41.5208 48.0417 41.6875 47.375C41.9375 46.2917 42.6458 45.3333 43.8125 44.5C45.0625 43.6667 46.3542 43.0417 47.6875 42.625C49.1042 42.2083 50.3958 42.0417 51.5625 42.125C52.8125 42.125 53.6042 42.5 53.9375 43.25ZM54.5625 23C54.8958 23.6667 55.0208 24.5833 54.9375 25.75C54.9375 26.9167 54.8125 28.125 54.5625 29.375C54.3125 30.625 53.9792 31.8333 53.5625 33C53.1458 34.1667 52.7292 35.0833 52.3125 35.75C51.4792 36.9167 50.2292 37.6667 48.5625 38C46.9792 38.25 45.8125 38.2917 45.0625 38.125C44.4792 38.0417 43.8958 37.6667 43.3125 37C42.7292 36.25 42.2292 35.375 41.8125 34.375C41.3958 33.2917 41.1042 32.125 40.9375 30.875C40.7708 29.625 40.8125 28.4583 41.0625 27.375C41.3125 26.2917 42.1042 25.3333 43.4375 24.5C44.7708 23.5833 46.1875 22.9167 47.6875 22.5C49.1875 22 50.6042 21.7917 51.9375 21.875C53.2708 21.875 54.1458 22.25 54.5625 23ZM99.1875 44.625C99.1875 45.9583 99.0208 47.875 98.6875 50.375C98.4375 52.875 98.0625 55.625 97.5625 58.625C97.0625 61.5417 96.5208 64.5833 95.9375 67.75C95.4375 70.8333 94.8958 73.6667 94.3125 76.25C93.8125 78.8333 93.3542 81 92.9375 82.75C92.6042 84.5 92.3958 85.4583 92.3125 85.625C92.1458 85.875 91.6875 86.0417 90.9375 86.125C90.2708 86.125 89.4792 86.0417 88.5625 85.875C87.7292 85.7083 86.9375 85.4583 86.1875 85.125C85.5208 84.7917 85.1042 84.375 84.9375 83.875C84.8542 83.5417 84.8125 82.375 84.8125 80.375C84.8958 78.375 84.9792 76 85.0625 73.25C85.2292 70.4167 85.3958 67.4167 85.5625 64.25C85.7292 61 85.8958 58 86.0625 55.25C86.3125 52.4167 86.4792 50 86.5625 48C86.7292 46 86.8125 44.7917 86.8125 44.375C86.8125 42.875 86.6458 41.4583 86.3125 40.125C86.0625 38.7083 85.7292 37.5 85.3125 36.5C84.8958 35.5 84.3958 34.75 83.8125 34.25C83.3125 33.6667 82.8542 33.4583 82.4375 33.625C81.3542 33.7917 80.4375 34.0833 79.6875 34.5C78.9375 34.8333 78.3125 35.2083 77.8125 35.625C77.2292 36.125 76.7708 36.7083 76.4375 37.375C76.3542 37.5417 76.1875 38.0417 75.9375 38.875C75.7708 39.7083 75.6875 40.6667 75.6875 41.75C75.6875 42.0833 75.6875 43.2917 75.6875 45.375C75.6875 47.375 75.6458 49.7917 75.5625 52.625C75.5625 55.4583 75.5208 58.5417 75.4375 61.875C75.4375 65.125 75.3958 68.1667 75.3125 71C75.3125 73.75 75.2708 76.125 75.1875 78.125C75.1042 80.125 75.0208 81.25 74.9375 81.5C74.7708 82 74.3542 82.7083 73.6875 83.625C73.0208 84.4583 72.2708 85.25 71.4375 86C70.6042 86.75 69.8125 87.3333 69.0625 87.75C68.3125 88.0833 67.8125 88 67.5625 87.5C67.3125 87.25 67.0625 86.0417 66.8125 83.875C66.5625 81.625 66.2708 78.9167 65.9375 75.75C65.6875 72.5 65.3958 69 65.0625 65.25C64.7292 61.4167 64.4375 57.75 64.1875 54.25C63.9375 50.75 63.7292 47.5833 63.5625 44.75C63.3958 41.9167 63.2708 39.875 63.1875 38.625C63.1042 36.875 63.0208 34.9167 62.9375 32.75C62.8542 30.5 62.7708 28.4167 62.6875 26.5C62.6875 24.5 62.6875 22.7917 62.6875 21.375C62.7708 19.875 62.9375 18.9583 63.1875 18.625C63.3542 18.2917 63.8958 18.2083 64.8125 18.375C65.8125 18.5417 66.8542 18.875 67.9375 19.375C69.1042 19.7917 70.1875 20.3333 71.1875 21C72.1875 21.5833 72.8542 22.1667 73.1875 22.75C73.3542 23.25 73.5625 23.8333 73.8125 24.5C74.0625 25.0833 74.2708 26.0833 74.4375 27.5C75.8542 26.6667 77.3958 25.9167 79.0625 25.25C80.7292 24.5 82.3542 23.9583 83.9375 23.625C85.6042 23.2083 87.1875 23.0833 88.6875 23.25C90.1875 23.3333 91.5208 23.75 92.6875 24.5C93.4375 25.0833 94.1875 26.0833 94.9375 27.5C95.7708 28.9167 96.4792 30.5833 97.0625 32.5C97.7292 34.4167 98.2292 36.4583 98.5625 38.625C98.9792 40.7083 99.1875 42.7083 99.1875 44.625ZM141.562 14.25C141.812 16.25 141.896 20.25 141.812 26.25C141.812 28.8333 141.729 31.9583 141.562 35.625C141.479 39.2917 141.312 43.7083 141.062 48.875C140.812 53.9583 140.479 59.875 140.062 66.625C139.729 73.2917 139.271 80.875 138.688 89.375C138.521 90.2083 138.146 91.125 137.562 92.125C137.062 93.125 136.479 94.0417 135.812 94.875C135.146 95.7083 134.438 96.4167 133.688 97C132.938 97.5 132.271 97.6667 131.688 97.5C131.521 97.4167 131.312 96.75 131.062 95.5C130.896 94.25 130.729 92.5 130.562 90.25C126.812 91.9167 123.271 93.0417 119.938 93.625C116.604 94.2083 113.896 93.8333 111.812 92.5C110.979 92 110.146 91.125 109.312 89.875C108.562 88.5417 107.854 87 107.188 85.25C106.521 83.5 105.979 81.6667 105.562 79.75C105.146 77.75 104.938 75.875 104.938 74.125C104.938 72.875 105.021 71.2083 105.188 69.125C105.354 67.0417 105.562 64.7917 105.812 62.375C106.062 59.875 106.354 57.375 106.688 54.875C107.021 52.2917 107.354 49.9167 107.688 47.75C108.021 45.5833 108.312 43.75 108.562 42.25C108.812 40.75 109.021 39.8333 109.188 39.5C109.354 38.5 109.646 37.6667 110.062 37C110.562 36.3333 110.979 35.8333 111.312 35.5C112.146 34.8333 113.354 34.3333 114.938 34C116.604 33.6667 118.312 33.4583 120.062 33.375C121.896 33.2917 123.604 33.3333 125.188 33.5C126.771 33.5833 127.938 33.75 128.688 34H128.938C128.771 23.6667 128.771 15.7083 128.938 10.125C129.104 4.54167 129.438 1.54167 129.938 1.125C130.271 0.875 131.021 1.08333 132.188 1.75C133.354 2.41667 134.562 3.375 135.812 4.625C137.146 5.875 138.354 7.375 139.438 9.125C140.604 10.7917 141.312 12.5 141.562 14.25ZM122.562 84.25C123.729 84 124.771 83.7083 125.688 83.375C126.688 82.9583 127.521 82.5833 128.188 82.25C128.938 81.9167 129.562 81.5 130.062 81C129.979 78.8333 129.896 76.4167 129.812 73.75C129.729 71 129.646 68.1667 129.562 65.25C129.479 62.3333 129.396 59.375 129.312 56.375C129.229 53.2917 129.146 50.3333 129.062 47.5C129.062 46.5833 128.896 45.7917 128.562 45.125C128.312 44.4583 127.979 43.9167 127.562 43.5C127.312 43.3333 126.812 43.125 126.062 42.875C125.312 42.5417 124.438 42.2917 123.438 42.125C122.521 41.875 121.604 41.75 120.688 41.75C119.854 41.75 119.271 41.9167 118.938 42.25C118.771 42.3333 118.604 43.1667 118.438 44.75C118.354 46.25 118.229 48.1667 118.062 50.5C117.979 52.75 117.854 55.2083 117.688 57.875C117.604 60.5417 117.521 63.0417 117.438 65.375C117.354 67.7083 117.271 69.7083 117.188 71.375C117.104 73.0417 117.062 73.9583 117.062 74.125C117.062 75.5417 117.229 76.875 117.562 78.125C117.979 79.375 118.479 80.5 119.062 81.5C119.646 82.4167 120.271 83.1667 120.938 83.75C121.604 84.25 122.146 84.4167 122.562 84.25ZM200.812 30.125C200.979 30.375 201.229 31.5417 201.562 33.625C201.896 35.7083 202.229 38.2917 202.562 41.375C202.979 44.4583 203.354 47.7917 203.688 51.375C204.104 54.9583 204.479 58.375 204.812 61.625C205.229 64.875 205.562 67.7917 205.812 70.375C206.062 72.9583 206.271 74.7083 206.438 75.625C206.688 77.125 206.979 78.7917 207.312 80.625C207.646 82.375 207.938 84.0833 208.188 85.75C208.438 87.3333 208.604 88.7083 208.688 89.875C208.854 91.0417 208.812 91.75 208.562 92C208.396 92.25 207.729 92.3333 206.562 92.25C205.396 92.0833 204.104 91.8333 202.688 91.5C201.354 91.0833 200.062 90.625 198.812 90.125C197.646 89.5417 196.896 89 196.562 88.5C196.229 88.0833 195.896 87.4583 195.562 86.625C195.312 85.7917 194.979 84.3333 194.562 82.25C193.646 83.5 192.646 84.8333 191.562 86.25C190.562 87.5833 189.562 88.8333 188.562 90C187.562 91.0833 186.646 91.9583 185.812 92.625C184.979 93.2917 184.354 93.625 183.938 93.625C183.271 93.625 182.271 92.9583 180.938 91.625C179.604 90.2083 178.271 88.625 176.938 86.875C175.604 85.125 174.396 83.4583 173.312 81.875C172.229 80.2917 171.646 79.25 171.562 78.75C171.396 78.25 171.312 76.875 171.312 74.625C171.396 72.375 171.479 69.875 171.562 67.125C171.729 64.2917 171.896 61.5 172.062 58.75C172.229 55.9167 172.396 53.6667 172.562 52C172.729 50.3333 172.896 48.5 173.062 46.5C173.312 44.4167 173.562 42.5 173.812 40.75C174.062 38.9167 174.271 37.3333 174.438 36C174.688 34.6667 174.896 33.875 175.062 33.625C175.229 33.375 175.688 33.25 176.438 33.25C177.271 33.1667 178.104 33.2083 178.938 33.375C179.854 33.4583 180.688 33.6667 181.438 34C182.188 34.25 182.688 34.5833 182.938 35C183.104 35.3333 183.188 36.4167 183.188 38.25C183.271 40 183.312 42.1667 183.312 44.75C183.312 47.25 183.312 50 183.312 53C183.312 55.9167 183.271 58.6667 183.188 61.25C183.188 63.75 183.146 65.9167 183.062 67.75C183.062 69.5 183.062 70.5417 183.062 70.875C183.062 71.5417 183.438 72.8333 184.188 74.75C185.021 76.6667 185.854 78.5 186.688 80.25L193.188 72.5C193.104 71 193.021 69.0833 192.938 66.75C192.938 64.4167 192.896 61.9583 192.812 59.375C192.729 56.7917 192.646 54.1667 192.562 51.5C192.479 48.8333 192.438 46.4167 192.438 44.25C192.438 42.0833 192.438 40.2917 192.438 38.875C192.438 37.4583 192.479 36.625 192.562 36.375C192.812 35.875 193.312 35.2083 194.062 34.375C194.812 33.5417 195.646 32.75 196.562 32C197.479 31.25 198.312 30.6667 199.062 30.25C199.896 29.8333 200.479 29.7917 200.812 30.125ZM249.938 35.5C250.021 36.4167 249.854 37.8333 249.438 39.75C249.104 41.6667 248.562 43.5833 247.812 45.5C247.146 47.4167 246.229 49.0833 245.062 50.5C243.979 51.9167 242.729 52.625 241.312 52.625C240.312 52.625 239.479 51.8333 238.812 50.25C238.229 48.6667 237.771 46.8333 237.438 44.75C237.188 42.5833 236.979 40.4583 236.812 38.375C236.646 36.2917 236.479 34.8333 236.312 34C236.062 33.5833 235.562 33.2083 234.812 32.875C234.146 32.4583 233.479 32.25 232.812 32.25C232.146 32.25 231.396 32.7917 230.562 33.875C229.729 34.9583 228.896 36.2083 228.062 37.625C227.312 39.0417 226.646 40.4583 226.062 41.875C225.562 43.2917 225.354 44.3333 225.438 45C225.438 45.5 225.979 46.375 227.062 47.625C228.146 48.875 229.479 50.375 231.062 52.125C232.729 53.7917 234.479 55.625 236.312 57.625C238.229 59.5417 239.979 61.5 241.562 63.5C243.146 65.4167 244.479 67.25 245.562 69C246.729 70.75 247.354 72.25 247.438 73.5C247.521 75 247.104 76.9167 246.188 79.25C245.354 81.5833 244.271 83.8333 242.938 86C241.604 88.1667 240.188 90.0417 238.688 91.625C237.188 93.2083 235.854 94.0417 234.688 94.125C233.521 94.2083 231.812 93.5833 229.562 92.25C227.396 90.8333 225.188 89.2083 222.938 87.375C220.771 85.4583 218.812 83.5833 217.062 81.75C215.396 79.9167 214.438 78.5833 214.188 77.75C213.938 77 213.771 76 213.688 74.75C213.688 73.5 213.729 72.25 213.812 71C213.979 69.75 214.229 68.7083 214.562 67.875C214.896 66.9583 215.312 66.5 215.812 66.5C216.312 66.5 217.312 67.375 218.812 69.125C220.312 70.7917 221.938 72.7083 223.688 74.875C225.438 76.9583 227.146 78.875 228.812 80.625C230.479 82.2917 231.688 83.125 232.438 83.125C232.854 83.125 233.312 82.8333 233.812 82.25C234.312 81.5833 234.771 80.8333 235.188 80C235.604 79.1667 235.938 78.3333 236.188 77.5C236.521 76.5833 236.688 75.875 236.688 75.375C236.604 74.625 235.938 73.5417 234.688 72.125C233.438 70.7083 231.854 69.125 229.938 67.375C228.021 65.625 225.938 63.7917 223.688 61.875C221.438 59.875 219.354 58 217.438 56.25C215.521 54.5 213.938 52.9167 212.688 51.5C211.438 50.0833 210.771 49 210.688 48.25C210.604 47.5 210.854 46.3333 211.438 44.75C212.021 43.0833 212.771 41.2917 213.688 39.375C214.604 37.375 215.646 35.3333 216.812 33.25C218.062 31.1667 219.312 29.25 220.562 27.5C221.812 25.75 223.021 24.3333 224.188 23.25C225.438 22.0833 226.521 21.5 227.438 21.5C229.271 21.5 231.438 22 233.938 23C236.521 24 238.979 25.25 241.312 26.75C243.646 28.1667 245.646 29.6667 247.312 31.25C248.979 32.8333 249.854 34.25 249.938 35.5Z" fill="black"/>
</svg>
